<svg t="1677404751054" class="icon" viewBox="0 0 1024 1024" version="1.1" xmlns="http://www.w3.org/2000/svg" p-id="3693" width="200" height="200"><path d="M96 192h544v256H96V192z m288 384h544v256H384v-256z" fill="#5A6978" p-id="3694"></path><path d="M256 352h320v32H256v-32zM160 256h224v32H160V256z m288 0h64v32h-64V256z m128 384h256v32h-256v-32z m160 96h64v32h-64v-32z m-288 0h224v32h-224v-32z" fill="#FFFFFF" p-id="3695"></path><path d="M240 689.952v116.992c22.72 52.288 49.28 81.952 78.912 90.4a16 16 0 0 1-8.8 30.784c-41.152-11.744-74.464-49.472-100.832-111.648l-1.28-6.24v-120.288l-63.744 57.92a16 16 0 0 1-21.536-23.712L224 632.224l101.28 91.936a16 16 0 0 1-21.536 23.68L240 689.952z m541.696-358.016l2.304-108.16c0.448-34.624-25.952-67.36-82.144-97.92a16 16 0 1 1 15.296-28.16c65.536 35.68 99.456 77.76 98.848 126.656l-2.4 111.872 66.144-60.064a16 16 0 1 1 21.536 23.68L800 391.776 698.72 299.84a16 16 0 0 1 21.536-23.68l61.44 55.776z" fill="#27A2DF" p-id="3696"></path></svg>